<mxfile host="app.diagrams.net" modified="2022-01-14T08:20:55.051Z" agent="5.0 (Macintosh; Intel Mac OS X 10_15_7) AppleWebKit/537.36 (KHTML, like Gecko) Chrome/97.0.4692.71 Safari/537.36" etag="-eMUXPrVtqnijQgbV-ee" version="16.2.6" type="github">
  <diagram id="C5RBs43oDa-KdzZeNtuy" name="Page-1">
    <mxGraphModel dx="1018" dy="1860" grid="1" gridSize="10" guides="1" tooltips="1" connect="1" arrows="1" fold="1" page="1" pageScale="1" pageWidth="827" pageHeight="1169" math="0" shadow="0">
      <root>
        <mxCell id="WIyWlLk6GJQsqaUBKTNV-0" />
        <mxCell id="WIyWlLk6GJQsqaUBKTNV-1" parent="WIyWlLk6GJQsqaUBKTNV-0" />
        <mxCell id="WIyWlLk6GJQsqaUBKTNV-2" value="" style="rounded=0;html=1;jettySize=auto;orthogonalLoop=1;fontSize=11;endArrow=block;endFill=0;endSize=8;strokeWidth=1;shadow=0;labelBackgroundColor=none;edgeStyle=orthogonalEdgeStyle;" parent="WIyWlLk6GJQsqaUBKTNV-1" source="WIyWlLk6GJQsqaUBKTNV-3" target="WIyWlLk6GJQsqaUBKTNV-6" edge="1">
          <mxGeometry relative="1" as="geometry" />
        </mxCell>
        <mxCell id="QYyzJ2uqC3qdaz-y6rXg-9" value="" style="edgeStyle=orthogonalEdgeStyle;rounded=0;orthogonalLoop=1;jettySize=auto;html=1;fontFamily=Verdana;fontSize=24;" edge="1" parent="WIyWlLk6GJQsqaUBKTNV-1" source="WIyWlLk6GJQsqaUBKTNV-3" target="QYyzJ2uqC3qdaz-y6rXg-8">
          <mxGeometry relative="1" as="geometry" />
        </mxCell>
        <mxCell id="WIyWlLk6GJQsqaUBKTNV-3" value="J++" style="rounded=1;whiteSpace=wrap;html=1;fontSize=12;glass=0;strokeWidth=1;shadow=0;" parent="WIyWlLk6GJQsqaUBKTNV-1" vertex="1">
          <mxGeometry x="161" y="80" width="120" height="40" as="geometry" />
        </mxCell>
        <mxCell id="WIyWlLk6GJQsqaUBKTNV-5" value="Yes" style="edgeStyle=orthogonalEdgeStyle;rounded=0;html=1;jettySize=auto;orthogonalLoop=1;fontSize=11;endArrow=block;endFill=0;endSize=8;strokeWidth=1;shadow=0;labelBackgroundColor=none;" parent="WIyWlLk6GJQsqaUBKTNV-1" source="WIyWlLk6GJQsqaUBKTNV-6" target="WIyWlLk6GJQsqaUBKTNV-7" edge="1">
          <mxGeometry y="10" relative="1" as="geometry">
            <mxPoint as="offset" />
          </mxGeometry>
        </mxCell>
        <mxCell id="QYyzJ2uqC3qdaz-y6rXg-12" style="edgeStyle=orthogonalEdgeStyle;rounded=0;orthogonalLoop=1;jettySize=auto;html=1;entryX=0.5;entryY=0;entryDx=0;entryDy=0;fontFamily=Verdana;fontSize=24;" edge="1" parent="WIyWlLk6GJQsqaUBKTNV-1" source="WIyWlLk6GJQsqaUBKTNV-6" target="QYyzJ2uqC3qdaz-y6rXg-10">
          <mxGeometry relative="1" as="geometry" />
        </mxCell>
        <mxCell id="WIyWlLk6GJQsqaUBKTNV-6" value="If a[i] &amp;lt;&amp;nbsp; a[i+1]" style="rhombus;whiteSpace=wrap;html=1;shadow=0;fontFamily=Helvetica;fontSize=12;align=center;strokeWidth=1;spacing=6;spacingTop=-4;" parent="WIyWlLk6GJQsqaUBKTNV-1" vertex="1">
          <mxGeometry x="171" y="170" width="100" height="80" as="geometry" />
        </mxCell>
        <mxCell id="QYyzJ2uqC3qdaz-y6rXg-1" value="" style="edgeStyle=orthogonalEdgeStyle;rounded=0;orthogonalLoop=1;jettySize=auto;html=1;" edge="1" parent="WIyWlLk6GJQsqaUBKTNV-1" source="WIyWlLk6GJQsqaUBKTNV-7" target="QYyzJ2uqC3qdaz-y6rXg-0">
          <mxGeometry relative="1" as="geometry" />
        </mxCell>
        <mxCell id="WIyWlLk6GJQsqaUBKTNV-7" value="Swap a[i] and a[i+1]" style="rounded=1;whiteSpace=wrap;html=1;fontSize=12;glass=0;strokeWidth=1;shadow=0;" parent="WIyWlLk6GJQsqaUBKTNV-1" vertex="1">
          <mxGeometry x="320" y="190" width="120" height="40" as="geometry" />
        </mxCell>
        <mxCell id="QYyzJ2uqC3qdaz-y6rXg-4" style="edgeStyle=orthogonalEdgeStyle;rounded=0;orthogonalLoop=1;jettySize=auto;html=1;" edge="1" parent="WIyWlLk6GJQsqaUBKTNV-1" source="QYyzJ2uqC3qdaz-y6rXg-0">
          <mxGeometry relative="1" as="geometry">
            <mxPoint x="220" y="160" as="targetPoint" />
            <Array as="points">
              <mxPoint x="580" y="160" />
            </Array>
          </mxGeometry>
        </mxCell>
        <mxCell id="QYyzJ2uqC3qdaz-y6rXg-0" value="i++" style="whiteSpace=wrap;html=1;rounded=1;glass=0;strokeWidth=1;shadow=0;" vertex="1" parent="WIyWlLk6GJQsqaUBKTNV-1">
          <mxGeometry x="520" y="180" width="120" height="60" as="geometry" />
        </mxCell>
        <mxCell id="QYyzJ2uqC3qdaz-y6rXg-6" value="Bubble Sort&lt;br&gt;Aatmaj 16010121110" style="ellipse;whiteSpace=wrap;html=1;aspect=fixed;fontFamily=Verdana;fontSize=24;fillColor=#d5e8d4;strokeColor=#82b366;" vertex="1" parent="WIyWlLk6GJQsqaUBKTNV-1">
          <mxGeometry x="371" y="280" width="160" height="160" as="geometry" />
        </mxCell>
        <mxCell id="QYyzJ2uqC3qdaz-y6rXg-8" value="&lt;span&gt;Take values from user of the array. J=0,&amp;nbsp;&lt;/span&gt;" style="whiteSpace=wrap;html=1;rounded=1;glass=0;strokeWidth=1;shadow=0;" vertex="1" parent="WIyWlLk6GJQsqaUBKTNV-1">
          <mxGeometry x="161" y="-50" width="120" height="60" as="geometry" />
        </mxCell>
        <mxCell id="QYyzJ2uqC3qdaz-y6rXg-13" style="edgeStyle=orthogonalEdgeStyle;rounded=0;orthogonalLoop=1;jettySize=auto;html=1;fontFamily=Verdana;fontSize=24;" edge="1" parent="WIyWlLk6GJQsqaUBKTNV-1" source="QYyzJ2uqC3qdaz-y6rXg-10" target="WIyWlLk6GJQsqaUBKTNV-3">
          <mxGeometry relative="1" as="geometry">
            <Array as="points">
              <mxPoint x="80" y="325" />
              <mxPoint x="80" y="100" />
            </Array>
          </mxGeometry>
        </mxCell>
        <mxCell id="QYyzJ2uqC3qdaz-y6rXg-16" value="" style="edgeStyle=orthogonalEdgeStyle;rounded=0;orthogonalLoop=1;jettySize=auto;html=1;fontFamily=Verdana;fontSize=14;" edge="1" parent="WIyWlLk6GJQsqaUBKTNV-1" source="QYyzJ2uqC3qdaz-y6rXg-10" target="QYyzJ2uqC3qdaz-y6rXg-15">
          <mxGeometry relative="1" as="geometry" />
        </mxCell>
        <mxCell id="QYyzJ2uqC3qdaz-y6rXg-10" value="J &amp;lt; length of array?" style="rhombus;whiteSpace=wrap;html=1;shadow=0;strokeWidth=1;spacing=6;spacingTop=-4;" vertex="1" parent="WIyWlLk6GJQsqaUBKTNV-1">
          <mxGeometry x="176" y="280" width="90" height="90" as="geometry" />
        </mxCell>
        <mxCell id="QYyzJ2uqC3qdaz-y6rXg-14" value="&lt;font style=&quot;font-size: 14px&quot;&gt;No&lt;/font&gt;" style="text;html=1;strokeColor=none;fillColor=none;align=center;verticalAlign=middle;whiteSpace=wrap;rounded=0;fontFamily=Verdana;fontSize=24;" vertex="1" parent="WIyWlLk6GJQsqaUBKTNV-1">
          <mxGeometry x="116" y="280" width="60" height="30" as="geometry" />
        </mxCell>
        <mxCell id="QYyzJ2uqC3qdaz-y6rXg-15" value="Array is sorted" style="whiteSpace=wrap;html=1;shadow=0;strokeWidth=1;spacing=6;spacingTop=-4;" vertex="1" parent="WIyWlLk6GJQsqaUBKTNV-1">
          <mxGeometry x="161" y="465" width="120" height="60" as="geometry" />
        </mxCell>
        <mxCell id="QYyzJ2uqC3qdaz-y6rXg-17" value="Yes" style="text;html=1;strokeColor=none;fillColor=none;align=center;verticalAlign=middle;whiteSpace=wrap;rounded=0;fontFamily=Verdana;fontSize=14;" vertex="1" parent="WIyWlLk6GJQsqaUBKTNV-1">
          <mxGeometry x="221" y="420" width="60" height="30" as="geometry" />
        </mxCell>
        <mxCell id="QYyzJ2uqC3qdaz-y6rXg-19" value="&lt;font style=&quot;font-size: 14px&quot;&gt;No&lt;/font&gt;" style="text;html=1;strokeColor=none;fillColor=none;align=center;verticalAlign=middle;whiteSpace=wrap;rounded=0;fontFamily=Verdana;fontSize=24;" vertex="1" parent="WIyWlLk6GJQsqaUBKTNV-1">
          <mxGeometry x="221" y="240" width="60" height="30" as="geometry" />
        </mxCell>
      </root>
    </mxGraphModel>
  </diagram>
</mxfile>
